<?xml version="1.0" encoding="utf-8"?>
<svg version="1.0" width="512.000000pt" height="512.000000pt" viewBox="0 0 512.000000 512.000000" preserveAspectRatio="xMidYMid meet" xmlns="http://www.w3.org/2000/svg">
  <g transform="translate(0.000000,512.000000) scale(0.100000,-0.100000)" fill="#000000" stroke="none">
    <path d="M4050 4612 c-33 -7 -30 -8 40 -21 321 -59 527 -239 615 -536 37 -123 45 -309 21 -456 -45 -272 -187 -569 -402 -839 -94 -118 -387 -408 -518 -513 -599 -476 -1333 -822 -1971 -928 -167 -28 -404 -30 -515 -5 -299 67 -413 278 -287 531 61 123 149 229 318 380 79 70 123 118 138 148 28 58 28 147 0 222 -23 61 -102 186 -142 223 l-25 24 -43 -28 c-208 -130 -553 -444 -731 -664 -163 -202 -319 -472 -377 -650 -51 -157 -65 -341 -36 -454 69 -264 330 -449 735 -521 130 -23 404 -30 570 -16 625 56 1278 302 1930 729 698 457 1210 1020 1491 1642 268 595 275 1069 19 1408 -120 160 -287 266 -481 307 -82 17 -295 28 -349 17z" style="fill: rgb(0, 104, 172);"/>
    <path d="M3455 4519 c-188 -9 -321 -29 -522 -79 -961 -237 -1839 -652 -2548 -1205 -186 -145 -282 -233 -304 -278 -73 -150 55 -332 371 -530 l88 -55 128 127 c450 445 882 716 1214 763 229 33 457 -85 653 -337 198 -256 355 -652 355 -900 l0 -68 43 7 c23 3 79 24 125 47 143 70 228 178 251 317 22 137 -38 450 -134 702 -100 261 -188 405 -405 664 -82 98 -80 151 8 236 129 125 467 262 777 314 246 42 605 46 804 10 31 -6 33 -6 22 15 -32 59 -214 167 -353 210 -126 38 -316 51 -573 40z" style="fill: rgb(156, 158, 161);"/>
  </g>
</svg>