<svg xmlns="http://www.w3.org/2000/svg" version="1.1" xmlns:xlink="http://www.w3.org/1999/xlink" xmlns:svgjs="http://svgjs.com/svgjs" width="1440" height="560" preserveAspectRatio="none" viewBox="0 0 1440 560"><g mask="url(&quot;#SvgjsMask1010&quot;)" fill="none"><rect width="1440" height="560" x="0" y="0" fill="rgba(41, 75, 154, 1)"></rect><path d="M1136.46 173.28 a38.54 38.54 0 1 0 77.08 0 a38.54 38.54 0 1 0 -77.08 0z" stroke="#037b0b"></path><path d="M1194.18 392.02a36.58 36.58 0 1 0-41.59-60.19z" fill="#e73635"></path><path d="M33.6 469.16L77.44 469.16L77.44 513L33.6 513z" fill="#037b0b"></path><path d="M98.93 209.46 a25.08 25.08 0 1 0 50.16 0 a25.08 25.08 0 1 0 -50.16 0z" fill="#037b0b"></path><path d="M917.7 280.56L962.06 280.56L962.06 324.92L917.7 324.92z" stroke="#e73635"></path><path d="M1247.63 545.9L1263.92 545.9L1263.92 562.19L1247.63 562.19z" stroke="#e73635"></path><path d="M1111.33 250.69L1160.71 250.69L1160.71 300.07L1111.33 300.07z" fill="#037b0b"></path><path d="M1347.58 507.43 a29.01 29.01 0 1 0 58.02 0 a29.01 29.01 0 1 0 -58.02 0z" stroke="#e73635"></path><path d="M45.63 207.38 a35.66 35.66 0 1 0 71.32 0 a35.66 35.66 0 1 0 -71.32 0z" stroke="#037b0b"></path><path d="M921.64 79.13 a51.57 51.57 0 1 0 103.14 0 a51.57 51.57 0 1 0 -103.14 0z" stroke="#037b0b"></path><path d="M685.21 433.36L727.75 433.36L727.75 475.9L685.21 475.9z" stroke="#e73635"></path><path d="M728.46 484.15a31.83 31.83 0 1 0-35.94-52.54z" stroke="#e73635"></path><path d="M944.36 268.02L958.68 268.02L958.68 272.77L944.36 272.77z" stroke="#e73635"></path><path d="M110.24 44.53a37.89 37.89 0 1 0-55.76-51.31z" fill="#037b0b"></path><path d="M295.92 281.33L327.27 281.33L327.27 298.9L295.92 298.9z" fill="#e73635"></path><path d="M1060.28 427.69a43.83 43.83 0 1 0-18.8 85.62z" fill="#037b0b"></path><path d="M990.57 394.8L994.8 394.8L994.8 413.93L990.57 413.93z" stroke="#037b0b"></path><path d="M537.32 405.9a9.97 9.97 0 1 0-1.77-19.86z" stroke="#037b0b"></path><path d="M653.83 111.75L679.36 111.75L679.36 137.28L653.83 137.28z" fill="#037b0b"></path><path d="M1260.39 438.26L1265 438.26L1265 442.87L1260.39 442.87z" stroke="#e73635"></path><path d="M1142.86 51.17 a18.6 18.6 0 1 0 37.2 0 a18.6 18.6 0 1 0 -37.2 0z" fill="#e73635"></path><path d="M336.32 455.9a6.65 6.65 0 1 0-10.1 8.66z" stroke="#037b0b"></path><path d="M715.54 440.92L756.52 440.92L756.52 442.09L715.54 442.09z" stroke="#037b0b"></path><path d="M223.91 280.88L225.06 280.88L225.06 282.03L223.91 282.03z" stroke="#037b0b"></path><path d="M587.93 9.15L621.57 9.15L621.57 42.79L587.93 42.79z" fill="#037b0b"></path><path d="M960.69 448.89L981.26 448.89L981.26 461.27L960.69 461.27z" stroke="#037b0b"></path><path d="M1388.82 505.91L1398.05 505.91L1398.05 550.94L1388.82 550.94z" fill="#e73635"></path><path d="M1434.81 255.99L1480.44 255.99L1480.44 301.62L1434.81 301.62z" stroke="#e73635"></path><path d="M888.77 295.15 a32.63 32.63 0 1 0 65.26 0 a32.63 32.63 0 1 0 -65.26 0z" fill="#037b0b"></path><path d="M698.44 381.49L752.97 381.49L752.97 395.89L698.44 395.89z" stroke="#e73635"></path><path d="M369.63 465.58 a2.88 2.88 0 1 0 5.76 0 a2.88 2.88 0 1 0 -5.76 0z" fill="#e73635"></path><path d="M31.23 435.97L49.25 435.97L49.25 438.16L31.23 438.16z" fill="#e73635"></path><path d="M854.6 25.5L904.62 25.5L904.62 37.52L854.6 37.52z" fill="#e73635"></path></g><defs><mask id="SvgjsMask1010"><rect width="1440" height="560" fill="#ffffff"></rect></mask></defs></svg>