<svg xmlns="http://www.w3.org/2000/svg" version="1.1" xmlns:xlink="http://www.w3.org/1999/xlink" xmlns:svgjs="http://svgjs.com/svgjs" width="1440" height="560" preserveAspectRatio="none" viewBox="0 0 1440 560"><g mask="url(&quot;#SvgjsMask1005&quot;)" fill="none"><rect width="1440" height="560" x="0" y="0" fill="rgba(41, 75, 154, 1)"></rect><path d="M1182.53 333.54 a36.39 36.39 0 1 0 72.78 0 a36.39 36.39 0 1 0 -72.78 0z" stroke="#d3b714"></path><path d="M666.98 150.71 a43.2 43.2 0 1 0 86.4 0 a43.2 43.2 0 1 0 -86.4 0z" stroke="#e73635"></path><path d="M907.75 336.35L946.37 336.35L946.37 374.97L907.75 374.97z" stroke="#e73635"></path><path d="M1094.57 34.39a55.43 55.43 0 1 0 102.48-42.28z" stroke="#d3b714"></path><path d="M45.13 403.63L74.61 403.63L74.61 442.05L45.13 442.05z" fill="#d3b714"></path><path d="M607.92 361.24a36.69 36.69 0 1 0 72.02 14.08z" stroke="#d3b714"></path><path d="M1348.21 63.85L1351.55 63.85L1351.55 67.19L1348.21 67.19z" fill="#d3b714"></path><path d="M329.05 519.86 a55.08 55.08 0 1 0 110.16 0 a55.08 55.08 0 1 0 -110.16 0z" stroke="#e73635"></path><path d="M144.68 312.02 a45.71 45.71 0 1 0 91.42 0 a45.71 45.71 0 1 0 -91.42 0z" stroke="#037b0b"></path><path d="M759.72 48.15a19.58 19.58 0 1 0 21.11 32.98z" stroke="#d3b714"></path><path d="M92.97 112.36a37.98 37.98 0 1 0-74.17-16.42z" stroke="#e73635"></path><path d="M1186.15 364.27 a49.68 49.68 0 1 0 99.36 0 a49.68 49.68 0 1 0 -99.36 0z" stroke="#d3b714"></path><path d="M564.25 334.45L598.63 334.45L598.63 336.07L564.25 336.07z" fill="#037b0b"></path><path d="M963.33 488.05L1010.82 488.05L1010.82 535.54L963.33 535.54z" stroke="#d3b714"></path><path d="M472.53 87.03L511.5 87.03L511.5 99.45L472.53 99.45z" stroke="#d3b714"></path><path d="M363.18 54.41L413.26 54.41L413.26 80.68L363.18 80.68z" stroke="#e73635"></path><path d="M579.63 451.43a44.13 44.13 0 1 0 22.24 85.41z" fill="#d3b714"></path><path d="M322.83 508.67a29.86 29.86 0 1 0-14.42 57.96z" stroke="#037b0b"></path><path d="M57.06 236.05L83.2 236.05L83.2 266.04L57.06 266.04z" stroke="#d3b714"></path><path d="M71.35 257.24L102.04 257.24L102.04 287.93L71.35 287.93z" stroke="#e73635"></path><path d="M1024.26 236.81L1026.75 236.81L1026.75 239.3L1024.26 239.3z" stroke="#e73635"></path><path d="M452.54 456.25a32.7 32.7 0 1 0-61.33-22.69z" fill="#e73635"></path><path d="M1209.3 432.29 a24.06 24.06 0 1 0 48.12 0 a24.06 24.06 0 1 0 -48.12 0z" stroke="#037b0b"></path><path d="M1019.73-12.67a20.64 20.64 0 1 0-31.61 26.55z" stroke="#037b0b"></path><path d="M1111.51 367.3L1114.13 367.3L1114.13 369.92L1111.51 369.92z" stroke="#d3b714"></path><path d="M272.03 11.64a1.47 1.47 0 1 0-2.9-0.52z" fill="#037b0b"></path><path d="M1400.36 444.84 a12.82 12.82 0 1 0 25.64 0 a12.82 12.82 0 1 0 -25.64 0z" stroke="#d3b714"></path><path d="M573.16 278.55L618.57 278.55L618.57 323.96L573.16 323.96z" stroke="#d3b714"></path><path d="M1072.41 312.24L1085.11 312.24L1085.11 330.77L1072.41 330.77z" fill="#e73635"></path><path d="M376.92 504.57L401.11 504.57L401.11 533.38L376.92 533.38z" fill="#037b0b"></path><path d="M1026.56 357.24L1048.39 357.24L1048.39 379.07L1026.56 379.07z" fill="#d3b714"></path><path d="M1171.01 14.73a13.8 13.8 0 1 0 24.05 13.54z" stroke="#e73635"></path><path d="M85.38 63.43 a30.89 30.89 0 1 0 61.78 0 a30.89 30.89 0 1 0 -61.78 0z" stroke="#e73635"></path></g><defs><mask id="SvgjsMask1005"><rect width="1440" height="560" fill="#ffffff"></rect></mask></defs></svg>