<svg xmlns="http://www.w3.org/2000/svg" version="1.1" xmlns:xlink="http://www.w3.org/1999/xlink" xmlns:svgjs="http://svgjs.com/svgjs" width="1440" height="560" preserveAspectRatio="none" viewBox="0 0 1440 560"><g mask="url(&quot;#SvgjsMask1012&quot;)" fill="none"><rect width="1440" height="560" x="0" y="0" fill="rgba(41, 75, 154, 1)"></rect><path d="M750 336.04L792.11 336.04L792.11 376.22L750 376.22z" stroke="#e73635"></path><path d="M336.61 8.89 a49.07 49.07 0 1 0 98.14 0 a49.07 49.07 0 1 0 -98.14 0z" stroke="#037b0b"></path><path d="M740.97 404.79 a2.84 2.84 0 1 0 5.68 0 a2.84 2.84 0 1 0 -5.68 0z" fill="#e73635"></path><path d="M664.97 440.05L695.73 440.05L695.73 441.35L664.97 441.35z" fill="#e73635"></path><path d="M1424.53 275.9L1437.27 275.9L1437.27 288.64L1424.53 288.64z" stroke="#e73635"></path><path d="M1172.37 512.92 a23.66 23.66 0 1 0 47.32 0 a23.66 23.66 0 1 0 -47.32 0z" stroke="#e73635"></path><path d="M367.57 206.5L418.35 206.5L418.35 227.12L367.57 227.12z" stroke="#e73635"></path><path d="M573.42 90.1a52.28 52.28 0 1 0-67.28 80.03z" stroke="#037b0b"></path><path d="M181.64 441.48L210.76 441.48L210.76 452.44L181.64 452.44z" fill="#037b0b"></path><path d="M1350.52 291.91L1365.16 291.91L1365.16 304L1350.52 304z" stroke="#e73635"></path><path d="M441.47 279.74L474.71 279.74L474.71 286.47L441.47 286.47z" fill="#037b0b"></path><path d="M391.9 434.37 a15.18 15.18 0 1 0 30.36 0 a15.18 15.18 0 1 0 -30.36 0z" fill="#037b0b"></path><path d="M1412.22 536.13L1445.73 536.13L1445.73 569.64L1412.22 569.64z" fill="#e73635"></path><path d="M503.77 267.81L527.13 267.81L527.13 297.4L503.77 297.4z" fill="#037b0b"></path><path d="M533.11 320.63L555.14 320.63L555.14 342.66L533.11 342.66z" stroke="#037b0b"></path><path d="M555.68 490.96a28.46 28.46 0 1 0-21.28 52.79z" fill="#e73635"></path><path d="M158.09 152.07a53.15 53.15 0 1 0 7.75 106.01z" fill="#037b0b"></path><path d="M1313.88 199.59a30.28 30.28 0 1 0-35.09 49.36z" stroke="#e73635"></path><path d="M1206.04 207.99L1245.96 207.99L1245.96 233.65L1206.04 233.65z" fill="#037b0b"></path><path d="M471.88 418.04 a5.31 5.31 0 1 0 10.62 0 a5.31 5.31 0 1 0 -10.62 0z" stroke="#e73635"></path><path d="M847.6 336.41 a31.86 31.86 0 1 0 63.72 0 a31.86 31.86 0 1 0 -63.72 0z" stroke="#037b0b"></path><path d="M510.44 134.1 a16.98 16.98 0 1 0 33.96 0 a16.98 16.98 0 1 0 -33.96 0z" stroke="#037b0b"></path><path d="M1139.8 78.29L1172.96 78.29L1172.96 83.92L1139.8 83.92z" stroke="#037b0b"></path><path d="M572.48 8.59L593.52 8.59L593.52 29.63L572.48 29.63z" fill="#e73635"></path><path d="M-4.06 2.58 a8.84 8.84 0 1 0 17.68 0 a8.84 8.84 0 1 0 -17.68 0z" stroke="#037b0b"></path><path d="M249.93 114.81L288.78 114.81L288.78 153.66L249.93 153.66z" fill="#037b0b"></path><path d="M956.18 307.94 a52.86 52.86 0 1 0 105.72 0 a52.86 52.86 0 1 0 -105.72 0z" fill="#037b0b"></path><path d="M603.45 275.03a51.1 51.1 0 1 0 2.12 102.18z" stroke="#037b0b"></path><path d="M354.43 238.3L382.96 238.3L382.96 273.25L354.43 273.25z" stroke="#e73635"></path><path d="M410.58 389.99L439.19 389.99L439.19 418.6L410.58 418.6z" fill="#e73635"></path><path d="M872.82 303.04L926.46 303.04L926.46 356.68L872.82 356.68z" fill="#037b0b"></path><path d="M1157.93 86.3 a42.68 42.68 0 1 0 85.36 0 a42.68 42.68 0 1 0 -85.36 0z" stroke="#e73635"></path><path d="M103.04 426.74L139.44 426.74L139.44 461.9L103.04 461.9z" stroke="#e73635"></path></g><defs><mask id="SvgjsMask1012"><rect width="1440" height="560" fill="#ffffff"></rect></mask></defs></svg>