<svg xmlns="http://www.w3.org/2000/svg" version="1.1" xmlns:xlink="http://www.w3.org/1999/xlink" xmlns:svgjs="http://svgjs.com/svgjs" width="1440" height="560" preserveAspectRatio="none" viewBox="0 0 1440 560"><g mask="url(&quot;#SvgjsMask1015&quot;)" fill="none"><rect width="1440" height="560" x="0" y="0" fill="rgba(41, 75, 154, 1)"></rect><path d="M451.2 99.37a45.21 45.21 0 1 0 75.94 49.08z" stroke="#e73635"></path><path d="M1082.8 535.59L1125.6 535.59L1125.6 542.54L1082.8 542.54z" fill="#e73635"></path><path d="M510.54 535.38a48.92 48.92 0 1 0 55.16-80.8z" stroke="#037b0b"></path><path d="M801.72 203.82L814.41 203.82L814.41 205.82L801.72 205.82z" fill="#037b0b"></path><path d="M119.38 345.19L170.79 345.19L170.79 353L119.38 353z" stroke="#037b0b"></path><path d="M411.08 407.55 a4.91 4.91 0 1 0 9.82 0 a4.91 4.91 0 1 0 -9.82 0z" stroke="#e73635"></path><path d="M1076.03 536.99L1111.62 536.99L1111.62 544.76L1076.03 544.76z" fill="#037b0b"></path><path d="M315.57 359.78a31.93 31.93 0 1 0 56.74-29.3z" fill="#e73635"></path><path d="M9.88 254.4L30.26 254.4L30.26 272.91L9.88 272.91z" stroke="#037b0b"></path><path d="M1271 364.48L1320.68 364.48L1320.68 371.74L1271 371.74z" fill="#037b0b"></path><path d="M544.58 209.19L596.23 209.19L596.23 225.34L544.58 225.34z" fill="#037b0b"></path><path d="M1346.74 420.51L1376.91 420.51L1376.91 450.68L1346.74 450.68z" fill="#037b0b"></path><path d="M14.99 529.37L44.42 529.37L44.42 558.8L14.99 558.8z" fill="#037b0b"></path><path d="M279.39 78.5L311.07 78.5L311.07 113.96L279.39 113.96z" stroke="#037b0b"></path><path d="M689.84 256.57L743.42 256.57L743.42 310.15L689.84 310.15z" fill="#e73635"></path><path d="M1174.11 423.12L1216.67 423.12L1216.67 449.7L1174.11 449.7z" stroke="#e73635"></path><path d="M617.63 211.11a46.94 46.94 0 1 0-27.67 89.71z" stroke="#e73635"></path><path d="M678.24 137.38L679.94 137.38L679.94 139.08L678.24 139.08z" stroke="#e73635"></path><path d="M958 464.6 a12.27 12.27 0 1 0 24.54 0 a12.27 12.27 0 1 0 -24.54 0z" fill="#037b0b"></path><path d="M80.08 361.69a29.13 29.13 0 1 0 22.9 53.57z" fill="#037b0b"></path><path d="M261.85 472.48L297.22 472.48L297.22 500.05L261.85 500.05z" fill="#037b0b"></path><path d="M987.87 160.17L1041.33 160.17L1041.33 188.8L987.87 188.8z" fill="#037b0b"></path><path d="M234.92 189.66 a13.99 13.99 0 1 0 27.98 0 a13.99 13.99 0 1 0 -27.98 0z" stroke="#e73635"></path><path d="M1306.96 57.18a9.52 9.52 0 1 0 13.6-13.32z" stroke="#037b0b"></path><path d="M171.32 448.16 a9.31 9.31 0 1 0 18.62 0 a9.31 9.31 0 1 0 -18.62 0z" stroke="#e73635"></path><path d="M1017.38 507.27 a31.96 31.96 0 1 0 63.92 0 a31.96 31.96 0 1 0 -63.92 0z" stroke="#037b0b"></path><path d="M745.75 37.1L798.27 37.1L798.27 61.89L745.75 61.89z" stroke="#e73635"></path><path d="M485.07 214.14L507.65 214.14L507.65 236.72L485.07 236.72z" fill="#037b0b"></path><path d="M1007.39 69.56a22.89 22.89 0 1 0 13.08-43.87z" fill="#037b0b"></path><path d="M70.47 344.84 a17.65 17.65 0 1 0 35.3 0 a17.65 17.65 0 1 0 -35.3 0z" fill="#e73635"></path><path d="M891.29 72.8L931.08 72.8L931.08 112.59L891.29 112.59z" fill="#037b0b"></path><path d="M318.35 130.95 a25.31 25.31 0 1 0 50.62 0 a25.31 25.31 0 1 0 -50.62 0z" fill="#e73635"></path><path d="M176.64 113.92L209.88 113.92L209.88 147.16L176.64 147.16z" stroke="#037b0b"></path></g><defs><mask id="SvgjsMask1015"><rect width="1440" height="560" fill="#ffffff"></rect></mask></defs></svg>